<svg width="200" height="200" viewBox="0 0 200 200" xmlns="http://www.w3.org/2000/svg">
  <path d="M100 10L30 40V100C30 146.5 59.5 180 100 190C140.5 180 170 146.5 170 100V40L100 10Z" fill="#3B82F6" />
  <path d="M100 25L45 50V100C45 138 68.5 165 100 173C131.5 165 155 138 155 100V50L100 25Z" fill="#2563EB" />
  <path d="M100 40L65 55V95C65 118 79 135 100 140C121 135 135 118 135 95V55L100 40Z" fill="#1D4ED8" />
  <path d="M85 80L65 95L85 110L105 95L85 80Z" fill="#DBEAFE" />
  <path d="M115 80L95 95L115 110L135 95L115 80Z" fill="#DBEAFE" />
  <path d="M100 60L80 75L100 90L120 75L100 60Z" fill="#DBEAFE" />
  <path d="M100 100L80 115L100 130L120 115L100 100Z" fill="#DBEAFE" />
  <g transform="translate(100, 95) scale(0.6)">
    <circle cx="0" cy="0" r="15" fill="#DBEAFE" />
    <rect x="-5" y="10" width="10" height="25" rx="2" fill="#DBEAFE" />
    <rect x="-10" y="20" width="20" height="5" rx="2" fill="#DBEAFE" />
    <rect x="-10" y="30" width="20" height="5" rx="2" fill="#DBEAFE" />
  </g>
</svg>

